<svg id="Слой_1" data-name="Слой 1" xmlns="http://www.w3.org/2000/svg" viewBox="0 0 512 512"><defs><style>.cls-1{fill:#152a2e;}.cls-2{fill:#484848;}.cls-3{fill:none;stroke:#474747;stroke-miterlimit:10;stroke-width:18px;}.cls-4{fill:#f0f0f0;}.cls-5{fill:#c1c2c2;}</style></defs><title>newslogic512</title><rect class="cls-1" x="7" y="5.5" width="499" height="252.5"/><rect class="cls-2" x="7" y="257.25" width="499" height="248.75"/><rect class="cls-3" x="3.5" y="3.5" width="506" height="506"/><path class="cls-4" d="M26.08,50.44V49.27H62.94q3.65,8,9.45,19.24T82.72,87.87l32.7,58.42q6.5,11.38,10.11,17.6T134.91,179q.44-8.09.58-15.13t.15-13.26V99.95q0-27.33-1.68-45.17l-17.74-4.34V49.27h43.43v1.17L141.92,55q-1.39,16.43-1.39,42V225.59h-.73Q128.64,202.83,117.69,183L73,103Q63.09,86,56.08,75.9q-1,16-1,29.8V180q0,14.9,1.46,35.55l18.54,4.34V221H30.68v-1.17l18-4.11q.88-8.45,1.24-24t.37-27.8V106.4q0-10.21-.22-20.24t-.8-19.88l-9.71-11.5ZM47.9,53.61l88.18,157.55v-11L54,53.61Z"/><path class="cls-4" d="M161.12,50.44V49.27h77.74l1.83,36.48h-1.17l-5.26-28.62a124.63,124.63,0,0,0-13.94-.7q-14.09,0-22.7,3.17-1.46,19-1.46,43.41,0,15.25.58,24.75,11.53,1.06,14.67,1.06a99,99,0,0,0,17-1.53l3.28-19.94h1.24v50h-1.24l-3.43-21.12a77.44,77.44,0,0,0-14-1.17,100,100,0,0,0-17.52,1.41q-.95,13.61-.58,26.63.15,16.66.36,27.51t.8,18.71q8.9,4.34,23.36,4.34a78.54,78.54,0,0,0,14-1.06l5.84-28.27h1L240,221H161.34v-1.17l17.45-4.11q.58-4.81,1.06-14.66t.84-22.11q.36-12.26.51-20.53t.15-14.49V114.38q0-5.63-.22-16t-.66-21.53Q180,65.7,179.22,54.55Zm22.19,3.4V216.44h5V53.85Z"/><path class="cls-4" d="M301.12,50.44l-20.8,4.34a233,233,0,0,0,1.79,24.28q1.79,15.84,4.05,28.51l7,38.71q2.33,13.37,5.84,27.92,6.71-22.88,10.66-38.71l12.55-50.21q6.64-27.57,8.32-37.77h1.39q.88,3.29,3.5,14.08t4.82,19.12l17.66,62.18Q362,158,368.21,177q2.33-9.38,7.23-35.08l8.32-47.28q1.75-9.38,3.06-20.18t1.9-20.18l-21.24-3.87V49.27H410.4v1.17l-13,4.11q-2.41,9-4.67,19.47t-4.45,23l-13,72.15q-3.21,18.07-5.8,33.49T366,225.59h-1.24q-.73-3.4-2.12-9.38t-2.19-9.39q-.8-3.4-2.12-8.39t-2.7-9.56l-20.44-73.32q-6.28-20.76-8.1-26.16a143.94,143.94,0,0,0-4.42,14.66q-2.89,10.91-3.32,13.14L302.29,185q-1.75,6.92-3.1,12.85t-2.85,12.55q-1.5,6.63-3.32,15.19h-1.17q-1.32-11.85-6.72-43.29l-13.79-78q-4.82-27.21-10.73-49.74l-12.7-4.11V49.27h53.21Zm-36.64,3.4,27.23,153.44H292L294.41,196,269.3,53.85Zm65.77,18.89-2.19,9.62,35.4,125.88,2.12-10.56Z"/><path class="cls-4" d="M416.38,180l5.55,28.86a35.39,35.39,0,0,0,9.75,4.93,28.46,28.46,0,0,0,9.67,1.76,17.67,17.67,0,0,0,10-3.05,24.85,24.85,0,0,0,7.45-7.74,38.63,38.63,0,0,0,4.42-10.62,46,46,0,0,0,1.53-11.56q0-11.61-4.89-19.59T443.5,142.53Q432,130.1,426.82,121.77a63.44,63.44,0,0,1-6.64-14.84A58.76,58.76,0,0,1,418,90.33a61.29,61.29,0,0,1,3.43-20.06A39.85,39.85,0,0,1,432,53.67,24.92,24.92,0,0,1,449.59,47a71.34,71.34,0,0,1,10.07.76,61.81,61.81,0,0,0,7.37.76q1.75-.11,3.29-.18a16.79,16.79,0,0,0,2.45-.23q.91-.18,1.93-.41l.44,40.12h-.95l-4.6-27.1q-10.15-7.15-17.67-7.16a18.13,18.13,0,0,0-11.28,3.81,24.85,24.85,0,0,0-7.77,10.44,38.42,38.42,0,0,0-2.77,15,34.13,34.13,0,0,0,3.72,15.9A63.61,63.61,0,0,0,444,112.85q6.46,6.92,13.87,14.66a93.12,93.12,0,0,1,11.86,14.9q8.69,14,8.69,32.26A72.62,72.62,0,0,1,475.07,196a42.51,42.51,0,0,1-11.31,18.59q-8,7.63-20.58,7.63a87.48,87.48,0,0,1-10.84-.82,82.4,82.4,0,0,0-9.38-.82,15.36,15.36,0,0,0-2.15.12l-2.37.35q-1.61.23-1.9.23L415.36,180ZM452.08,49.5h-2.34a24,24,0,0,0-14.82,5.16q-6.79,5.16-10.73,14.66a55.57,55.57,0,0,0-3.94,21.47,51.92,51.92,0,0,0,8.1,27.92A100.27,100.27,0,0,0,435,128q3.1,3.76,9.38,10.62t10,11.26a64.24,64.24,0,0,1,6.17,8.39,43.73,43.73,0,0,1,6.57,23.58,49.6,49.6,0,0,1-3,17.19,33.4,33.4,0,0,1-8.76,13.49,19.82,19.82,0,0,1-13.47,5.34v1.29a22.84,22.84,0,0,0,15.88-5,35,35,0,0,0,10.66-14.55,48.93,48.93,0,0,0,3.69-18.65,63.23,63.23,0,0,0-1.68-15.13,48.7,48.7,0,0,0-6.13-14,90.14,90.14,0,0,0-9.2-11.44q-6.64-7.33-13.43-14.78a103.83,103.83,0,0,1-9.93-12.26,49.5,49.5,0,0,1-7.67-26.86,44.52,44.52,0,0,1,7-24q7-11.14,21-11.73Z"/><path class="cls-5" d="M55.79,307.46V452H98.38V403.84a15.21,15.21,0,0,1,.92-6.2q.92-1.87,2.37-1.88t2.29,1.8q.92,1.81.92,6.28v60.31H34a3.48,3.48,0,0,1-3.28-1.73,10.1,10.1,0,0,1,0-8.73A3.53,3.53,0,0,1,34,452H49.31V307.46H34a3.52,3.52,0,0,1-3.28-1.66,10.25,10.25,0,0,1,0-8.8A3.52,3.52,0,0,1,34,295.34h37A3.52,3.52,0,0,1,74.34,297a10.25,10.25,0,0,1,0,8.8,3.52,3.52,0,0,1-3.28,1.66Z"/><path class="cls-5" d="M199.89,380.18a184.56,184.56,0,0,1-5.19,44.95q-5.19,20.71-14.31,32.25t-19.58,11.54q-15.5,0-27.29-24.89t-11.79-63.85q0-39.1,11.79-63.92t27.29-24.82q10.46,0,19.54,11.54t14.31,32.18A183.07,183.07,0,0,1,199.89,380.18Zm-6.49,0q0-29.58-9.08-53.1t-23.51-23.52q-13.51,0-23.09,22.44t-9.58,54.18q0,33.76,10,55.19t22.63,21.43q14.43,0,23.51-23.45T193.4,380.18Z"/><path class="cls-5" d="M289.34,401.53v51.94A59.48,59.48,0,0,1,274.72,465a30.62,30.62,0,0,1-14.54,3.9,29.73,29.73,0,0,1-18.13-5.77A46.07,46.07,0,0,1,228.82,447a98.81,98.81,0,0,1-8.43-23.23q-3-12.84-3-32.61V368.93a144.11,144.11,0,0,1,5.23-38.74q5.23-18.83,14.31-28.79t19.77-10q15.49,0,26.18,16a72.89,72.89,0,0,1,.27-8.51,5.75,5.75,0,0,1,1.11-2.52,2.4,2.4,0,0,1,1.91-1.08q1.37,0,2.29,1.88a15.21,15.21,0,0,1,.92,6.2v27.42q0,4.47-.92,6.28t-2.29,1.8a2.54,2.54,0,0,1-2.17-1.66q-.88-1.66-1-5.84-.46-12.26-8.43-20.06t-17.36-7.79q-8.85,0-16,7.29T227.9,338.63a103.64,103.64,0,0,0-4.12,30.44v22.08q0,30.16,9.77,47.9t26.94,17.75a25.18,25.18,0,0,0,10.76-2.31,52.52,52.52,0,0,0,11.6-8.08V401.53H260.8a3.52,3.52,0,0,1-3.28-1.66,8.52,8.52,0,0,1-1-4.4,8.93,8.93,0,0,1,1-4.47,3.48,3.48,0,0,1,3.28-1.73l30.83.14a3.53,3.53,0,0,1,3.28,1.66,8.53,8.53,0,0,1,1,4.4,9.58,9.58,0,0,1-.61,3.46,4.32,4.32,0,0,1-1.37,2.09Q293.16,401.54,289.34,401.53Z"/><path class="cls-5" d="M351.54,307.46V452h22a3.53,3.53,0,0,1,3.28,1.66,10.1,10.1,0,0,1,0,8.73,3.48,3.48,0,0,1-3.28,1.73H323.15a3.48,3.48,0,0,1-3.28-1.73,10.1,10.1,0,0,1,0-8.73,3.53,3.53,0,0,1,3.28-1.66h22V307.46h-22a3.52,3.52,0,0,1-3.28-1.66,10.25,10.25,0,0,1,0-8.8,3.52,3.52,0,0,1,3.28-1.66h50.37a3.52,3.52,0,0,1,3.28,1.66,10.25,10.25,0,0,1,0,8.8,3.52,3.52,0,0,1-3.28,1.66Z"/><path class="cls-5" d="M470.3,311.93v-8.51a15.81,15.81,0,0,1,.88-6.2q.88-1.87,2.33-1.88t2.33,1.88a15.83,15.83,0,0,1,.88,6.2V337a16.33,16.33,0,0,1-.88,6.35q-.88,1.88-2.33,1.88t-2.17-1.73a14.49,14.49,0,0,1-1-5.63,38.8,38.8,0,0,0-6.95-21.5q-8.85-12.84-20.15-12.84-7.4,0-14,6.2a32.78,32.78,0,0,0-7.79,11,126.93,126.93,0,0,0-8,25,110.6,110.6,0,0,0-2.14,22.8V389.7q0,27.13,10.38,47.11t24.12,20q8.24,0,14.77-6.78t12.63-20.49q1.3-3,2.9-3a2.5,2.5,0,0,1,2.21,1.59,8.62,8.62,0,0,1,.84,4q0,3.32-3.28,10.1-6.26,13.28-14.08,20T446,468.92q-6.94,0-14.12-5a36.68,36.68,0,0,1-9.08-9.09q-3.59-5.19-8.82-17.53a109.26,109.26,0,0,1-7.14-22.8,128.54,128.54,0,0,1-1.91-23V366.76A139.16,139.16,0,0,1,410,330.19q5.07-18.68,13.89-28.71t19.12-10Q458.85,291.44,470.3,311.93Z"/></svg>